<svg width="216" height="42" viewBox="0 0 216 42" fill="none" xmlns="http://www.w3.org/2000/svg">
<g filter="url(#filter0_d_22_374)">
<path fill-rule="evenodd" clip-rule="evenodd" d="M21.1298 30.4522C13.8911 30.4522 7.71249 23.8867 7.71249 16.7255C7.71249 9.59072 13.7618 2.89479 21.0778 2.89479C25.887 2.89479 29.3499 5.22146 32.1684 8.86674H35.7098C34.6498 6.95346 33.5125 5.19603 31.7805 3.82545C28.8072 1.42142 24.9552 0 21.1298 0C11.9524 0 4.48169 7.57464 4.48169 16.7C4.48169 25.8508 12.0563 33.3481 21.1817 33.3481C24.9044 33.3481 28.5497 31.9786 31.471 29.6774C33.3069 28.204 34.599 26.2907 35.8402 24.3255H32.2989C29.5058 27.9708 25.9389 30.4522 21.1298 30.4522ZM57.8391 13.0028C55.6163 10.1334 52.5911 8.32404 48.843 8.32404C42.1217 8.32404 36.5896 13.7798 36.5896 20.5012C36.5896 27.2214 42.1482 32.728 48.843 32.728C52.747 32.728 55.4605 31.0988 57.8391 28.1001V32.1842H60.7604V8.89216H57.8391V13.0028ZM48.6883 30.0388C43.5431 30.0388 39.4844 25.5668 39.4844 20.5266C39.4844 15.5107 43.5177 11.0132 48.6883 11.0132C53.8324 11.0132 57.8391 15.5118 57.8391 20.5266C57.8391 25.5668 53.8059 30.0388 48.6883 30.0388ZM64.3018 32.1842H67.4309V0.670921H64.3018V32.1842ZM79.2444 28.487L71.3337 8.89216H68.2312L77.7191 32.1842H80.8725L90.335 8.89216H87.2844L79.2444 28.487ZM91.6271 32.1842H94.7551V8.89216H91.6271V32.1842ZM91.6271 5.89348H94.7551V0.670921H91.6271V5.89348ZM108.224 8.32293C105.277 8.32293 103.183 9.87478 101.244 11.9428V8.89216H98.3485V32.1842H101.425V17.991C101.399 14.2429 104.501 11.0121 108.275 11.0121C113.005 11.0121 115.383 15.1228 115.383 19.3627V32.1853H118.278V19.3627C118.279 13.3134 114.739 8.32293 108.224 8.32293ZM147.311 0.670921L133.093 18.7415V0.670921H130.017V32.1842H133.093V23.5242L137.126 18.5094L147.389 32.1842H151.294L139.09 16.0269L151.294 0.670921H147.311ZM152.43 32.1842H155.482V0.670921H152.43V32.1842ZM180.738 14.7602C178.618 10.8043 174.378 8.32293 169.905 8.32293C163.236 8.32293 157.599 13.8815 157.599 20.5509C157.599 27.2711 163.287 32.7269 169.959 32.7269C173.137 32.7269 176.267 31.4602 178.566 29.2629C179.963 27.9443 180.79 26.2896 181.538 24.5576H178.256C176.601 27.7895 173.679 30.0377 169.904 30.0377C167.605 30.0377 165.355 29.107 163.65 27.5298C161.89 25.9282 161.115 23.9619 160.778 21.6363H182.263C182.264 19.2068 181.927 16.8802 180.738 14.7602ZM160.883 18.9482C161.816 14.5801 165.252 11.0121 169.959 11.0121C173.914 11.0121 178.154 13.4427 179.084 18.9482H160.883ZM184.539 32.1842H187.614V8.89216H184.539V32.1842ZM184.539 5.99738H187.614V0.670921H184.539V5.99738ZM201.136 8.32293C198.135 8.32293 196.042 9.87478 194.077 11.9428V8.89216H191.13V32.1842H194.232V17.991C194.207 14.2175 197.387 11.0121 201.186 11.0121C205.892 11.0121 208.375 15.1228 208.375 19.3627V32.1853H211.27V19.3627C211.27 13.3134 207.675 8.32293 201.136 8.32293Z" fill="white"/>
</g>
<defs>
<filter id="filter0_d_22_374" x="0.481689" y="0" width="214.788" height="41.3481" filterUnits="userSpaceOnUse" color-interpolation-filters="sRGB">
<feFlood flood-opacity="0" result="BackgroundImageFix"/>
<feColorMatrix in="SourceAlpha" type="matrix" values="0 0 0 0 0 0 0 0 0 0 0 0 0 0 0 0 0 0 127 0" result="hardAlpha"/>
<feOffset dy="4"/>
<feGaussianBlur stdDeviation="2"/>
<feComposite in2="hardAlpha" operator="out"/>
<feColorMatrix type="matrix" values="0 0 0 0 0 0 0 0 0 0 0 0 0 0 0 0 0 0 0.25 0"/>
<feBlend mode="normal" in2="BackgroundImageFix" result="effect1_dropShadow_22_374"/>
<feBlend mode="normal" in="SourceGraphic" in2="effect1_dropShadow_22_374" result="shape"/>
</filter>
</defs>
</svg>
